# Blender 4.0.2
# www.blender.org
mtllib estrella.mtl
o Círculo
v 0.000000 0.000000 -1.000000
v -0.235114 0.000000 -0.323607
v -0.951057 0.000000 -0.309017
v -0.380423 0.000000 0.123607
v -0.587785 0.000000 0.809017
v 0.000000 0.000000 0.400000
v 0.587785 0.000000 0.809017
v 0.380423 0.000000 0.123607
v 0.951057 0.000000 -0.309017
v 0.235114 0.000000 -0.323607
v 0.000000 0.100000 0.000000
v 0.000000 0.000000 -1.000000
v -0.235114 0.000000 -0.323607
v -0.951057 0.000000 -0.309017
v -0.380423 0.000000 0.123607
v -0.587785 0.000000 0.809017
v 0.000000 0.000000 0.400000
v 0.587785 0.000000 0.809017
v 0.380423 0.000000 0.123607
v 0.951057 0.000000 -0.309017
v 0.235114 0.000000 -0.323607
v 0.235114 0.000000 -0.323607
v 0.951057 0.000000 -0.309017
v 0.380423 0.000000 0.123607
v 0.587785 0.000000 0.809017
v -0.587785 0.000000 0.809017
v -0.380423 0.000000 0.123607
v -0.951057 0.000000 -0.309017
v -0.235114 0.000000 -0.323607
v 0.235114 0.000000 -0.323607
v 0.951057 0.000000 -0.309017
v 0.380423 0.000000 0.123607
v 0.587785 0.000000 0.809017
v -0.587785 0.000000 0.809017
v -0.380423 0.000000 0.123607
v -0.951057 0.000000 -0.309017
v -0.235114 0.000000 -0.323607
v 0.000000 -0.100000 0.000000
vn -0.0059 0.9566 -0.2913
vn -0.1760 0.9566 0.2322
vn -0.2789 0.9566 -0.0844
vn 0.1664 0.9566 0.2392
vn -0.1664 0.9566 0.2392
vn 0.2789 0.9566 -0.0844
vn 0.1760 0.9566 0.2322
vn 0.0059 0.9566 -0.2913
vn 0.2752 0.9566 -0.0957
vn -0.2752 0.9566 -0.0957
vn -0.0000 1.0000 -0.0000
vn -0.0059 -0.9566 -0.2913
vn -0.1760 -0.9566 0.2322
vn -0.2789 -0.9566 -0.0844
vn 0.1664 -0.9566 0.2392
vn -0.1664 -0.9566 0.2392
vn 0.2789 -0.9566 -0.0844
vn 0.1760 -0.9566 0.2322
vn 0.0059 -0.9566 -0.2913
vn 0.2752 -0.9566 -0.0957
vn -0.2752 -0.9566 -0.0957
vt 0.000000 0.000000
s 0
usemtl Material.001
f 2/1/1 3/1/1 11/1/1
f 3/1/2 4/1/2 11/1/2
f 4/1/3 5/1/3 11/1/3
f 5/1/4 6/1/4 11/1/4
f 6/1/5 7/1/5 11/1/5
f 7/1/6 8/1/6 11/1/6
f 8/1/7 9/1/7 11/1/7
f 9/1/8 10/1/8 11/1/8
f 10/1/9 1/1/9 11/1/9
f 1/1/10 2/1/10 11/1/10
f 7/1/11 6/1/11 17/1/11 18/1/11
f 4/1/11 3/1/11 14/1/11 15/1/11
f 1/1/11 10/1/11 21/1/11 12/1/11
f 8/1/11 7/1/11 18/1/11 19/1/11
f 5/1/11 4/1/11 15/1/11 16/1/11
f 2/1/11 1/1/11 12/1/11 13/1/11
f 9/1/11 8/1/11 19/1/11 20/1/11
f 6/1/11 5/1/11 16/1/11 17/1/11
f 3/1/11 2/1/11 13/1/11 14/1/11
f 10/1/11 9/1/11 20/1/11 21/1/11
f 22/1/8 11/1/8 23/1/8
f 23/1/7 11/1/7 24/1/7
f 24/1/6 11/1/6 25/1/6
f 25/1/5 11/1/5 6/1/5
f 6/1/4 11/1/4 26/1/4
f 26/1/3 11/1/3 27/1/3
f 27/1/2 11/1/2 28/1/2
f 28/1/1 11/1/1 29/1/1
f 29/1/10 11/1/10 1/1/10
f 1/1/9 11/1/9 22/1/9
f 26/1/11 34/1/11 17/1/11 6/1/11
f 24/1/11 32/1/11 31/1/11 23/1/11
f 1/1/11 12/1/11 37/1/11 29/1/11
f 27/1/11 35/1/11 34/1/11 26/1/11
f 25/1/11 33/1/11 32/1/11 24/1/11
f 22/1/11 30/1/11 12/1/11 1/1/11
f 28/1/11 36/1/11 35/1/11 27/1/11
f 6/1/11 17/1/11 33/1/11 25/1/11
f 23/1/11 31/1/11 30/1/11 22/1/11
f 29/1/11 37/1/11 36/1/11 28/1/11
f 2/1/12 38/1/12 3/1/12
f 3/1/13 38/1/13 4/1/13
f 4/1/14 38/1/14 5/1/14
f 5/1/15 38/1/15 6/1/15
f 6/1/16 38/1/16 7/1/16
f 7/1/17 38/1/17 8/1/17
f 8/1/18 38/1/18 9/1/18
f 9/1/19 38/1/19 10/1/19
f 10/1/20 38/1/20 1/1/20
f 1/1/21 38/1/21 2/1/21
f 22/1/19 23/1/19 38/1/19
f 23/1/18 24/1/18 38/1/18
f 24/1/17 25/1/17 38/1/17
f 25/1/16 6/1/16 38/1/16
f 6/1/15 26/1/15 38/1/15
f 26/1/14 27/1/14 38/1/14
f 27/1/13 28/1/13 38/1/13
f 28/1/12 29/1/12 38/1/12
f 29/1/21 1/1/21 38/1/21
f 1/1/20 22/1/20 38/1/20
